<?xml version="1.0" encoding="UTF-8" standalone="no"?>
<!-- Created with Inkscape (http://www.inkscape.org/) -->

<svg
   xmlns:dc="http://purl.org/dc/elements/1.1/"
   xmlns:cc="http://creativecommons.org/ns#"
   xmlns:rdf="http://www.w3.org/1999/02/22-rdf-syntax-ns#"
   xmlns:svg="http://www.w3.org/2000/svg"
   xmlns="http://www.w3.org/2000/svg"
   xmlns:sodipodi="http://sodipodi.sourceforge.net/DTD/sodipodi-0.dtd"
   xmlns:inkscape="http://www.inkscape.org/namespaces/inkscape"
   width="210mm"
   height="297mm"
   viewBox="0 0 210 297"
   version="1.1"
   id="svg8"
   inkscape:version="0.92.4 (5da689c313, 2019-01-14)"
   sodipodi:docname="drawing.svg">
  <defs
     id="defs2" />
  <sodipodi:namedview
     id="base"
     pagecolor="#ffffff"
     bordercolor="#666666"
     borderopacity="1.0"
     inkscape:pageopacity="0.0"
     inkscape:pageshadow="2"
     inkscape:zoom="0.7"
     inkscape:cx="855.80554"
     inkscape:cy="1221.0756"
     inkscape:document-units="mm"
     inkscape:current-layer="layer1"
     showgrid="false"
     inkscape:window-width="2256"
     inkscape:window-height="1410"
     inkscape:window-x="-11"
     inkscape:window-y="-11"
     inkscape:window-maximized="1" />
  <metadata
     id="metadata5">
    <rdf:RDF>
      <cc:Work
         rdf:about="">
        <dc:format>image/svg+xml</dc:format>
        <dc:type
           rdf:resource="http://purl.org/dc/dcmitype/StillImage" />
        <dc:title></dc:title>
      </cc:Work>
    </rdf:RDF>
  </metadata>
  <g
     inkscape:label="Layer 1"
     inkscape:groupmode="layer"
     id="layer1">
    <g
       id="g101"
       transform="translate(0.98467425,-1.3315096)">
      <path
         style="fill:#6badfb;stroke-width:0.25169024"
         d="m 157.28511,53.991424 c -5.64121,-0.839485 -10.87714,-3.354443 -14.53822,-6.983096 -2.07775,-2.059356 -3.22998,-3.639087 -4.53549,-6.218236 -1.20943,-2.389352 -2.17127,-5.612177 -2.24902,-7.535735 l -0.0456,-1.127986 -1.19458,0.346689 C 117.34456,37.516367 98.558257,37.886829 80.706126,33.538244 61.103472,28.763251 42.566769,18.57553 23.481413,2.0876988 22.985068,1.6589067 26.01525,1.6444145 116.16827,1.6444145 h 93.19997 V 16.95944 32.274465 l -1.496,1.283267 c -5.97068,5.121641 -14.27043,7.357208 -22.87605,6.161744 l -1.08652,-0.150936 -0.96117,1.794902 c -3.20966,5.993747 -9.33348,10.565567 -16.26006,12.139174 -2.51599,0.57159 -7.20804,0.815494 -9.40333,0.488808 z"
         id="path107"
         inkscape:connector-curvature="0" />
      <path
         style="fill:#fdc605;stroke-width:0.25169024"
         d="m 185.96226,39.83 c -0.92482,-0.123582 -1.73347,-0.273347 -1.79701,-0.332808 -0.0635,-0.05946 0.13657,-0.920073 0.44469,-1.912467 0.83697,-2.695723 1.15971,-5.331609 0.98705,-8.061455 -0.37625,-5.948957 -2.71253,-10.764664 -7.3367,-15.122958 -1.44041,-1.357595 -2.87502,-2.544418 -3.188,-2.637385 -0.45814,-0.13608 -1.01267,0.182363 -2.84471,1.633603 -8.8285,6.993431 -20.39727,13.286915 -31.58936,17.184805 -19.5691,6.815372 -39.96165,7.821492 -59.932094,2.956909 C 61.103472,28.763251 42.566769,18.57553 23.481413,2.0876988 22.985068,1.6589067 26.01525,1.6444145 116.16827,1.6444145 h 93.19997 V 16.95944 32.274465 l -1.496,1.283267 c -5.72865,4.914027 -14.11281,7.314197 -21.90998,6.272268 z"
         id="path105"
         inkscape:connector-curvature="0" />
      <path
         style="fill:#fd4757;stroke-width:0.25169024"
         d="m 185.96226,39.83 c -0.92482,-0.123582 -1.73347,-0.273347 -1.79701,-0.332808 -0.0635,-0.05946 0.13657,-0.920073 0.44469,-1.912467 0.83697,-2.695723 1.15971,-5.331609 0.98705,-8.061455 -0.37625,-5.948957 -2.71253,-10.764664 -7.3367,-15.122958 -1.44041,-1.357595 -2.85815,-2.53941 -3.15054,-2.626256 -0.46495,-0.138103 -0.21607,-0.45589 1.98513,-2.5346845 2.51624,-2.3763257 5.03786,-5.3128533 5.84234,-6.8036358 l 0.42702,-0.7913212 h 13.002 13.002 V 16.95944 32.274465 l -1.496,1.283267 c -5.72865,4.914027 -14.11281,7.314197 -21.90998,6.272268 z"
         id="path103"
         inkscape:connector-curvature="0" />
    </g>
    <path
       style="fill:#000000;stroke-width:0.25169024"
       d=""
       id="path99"
       inkscape:connector-curvature="0" />
    <path
       style="fill:#000000;stroke-width:0.25169024"
       d=""
       id="path29"
       inkscape:connector-curvature="0" />
    <path
       style="fill:#000000;stroke-width:0.35277778"
       d=""
       id="path27"
       inkscape:connector-curvature="0" />
    <path
       style="fill:#000000;stroke-width:0.35277778"
       d=""
       id="path25"
       inkscape:connector-curvature="0" />
    <path
       style="fill:#000000;stroke-width:0.35277778"
       d=""
       id="path23"
       inkscape:connector-curvature="0" />
    <path
       style="fill:#000000;stroke-width:0.35277778"
       d=""
       id="path21"
       inkscape:connector-curvature="0" />
  </g>
</svg>
